<?xml version="1.0" encoding="utf-8"?>
<!-- Generator: Adobe Illustrator 17.0.0, SVG Export Plug-In . SVG Version: 6.00 Build 0)  -->
<!DOCTYPE svg PUBLIC "-//W3C//DTD SVG 1.1//EN" "http://www.w3.org/Graphics/SVG/1.1/DTD/svg11.dtd">
<svg version="1.1" id="_x3C_Layer_x3E_" xmlns="http://www.w3.org/2000/svg" xmlns:xlink="http://www.w3.org/1999/xlink" x="0px"
	 y="0px" width="2660px" height="1900px" viewBox="0 0 2660 1900" enable-background="new 0 0 2660 1900" xml:space="preserve">
<g>
	<path fill="#D5232F" d="M2645.475,1141.673c-0.63,7.323-1.298,14.658-2.037,22.004c-2.898,29.196-6.634,58.634-11.244,88.309
		c-1.103,7.155-2.266,14.333-3.481,21.524c-5.821,34.43-12.807,69.137-20.994,104.072c-5.288,22.568-11.085,45.234-17.405,67.972
		c-9.776,35.223-20.788,70.624-33.074,106.147c-1.59,4.609-3.215,9.22-4.853,13.83c-15.245,42.989-32.384,86.135-51.449,129.364
		c-16.521,37.419-34.483,74.899-53.962,112.354c-8.55,16.447-17.392,32.905-26.527,49.341
		c-8.575,15.439-17.416,30.877-26.512,46.303c-1.359,2.281-2.704,4.562-4.063,6.843c-0.036,0.059-0.074,0.12-0.11,0.179
		l-55.671-0.12l-1833.174-3.96l-17.683-0.037c0,0-4.925-3.217-13.779-9.471c-4.827-3.423-10.843-7.744-17.854-12.941
		c-3.02-2.234-6.222-4.634-9.605-7.192c-19.528-14.777-44.853-34.886-73.478-59.844h-0.011c-0.741-0.66-1.48-1.309-2.244-1.968
		c-6.102-5.356-12.373-10.925-18.751-16.712c-0.958-0.864-1.917-1.741-2.875-2.618c-0.473-0.431-0.946-0.864-1.431-1.308
		c-1.273-1.164-2.547-2.329-3.833-3.517c-0.279-0.264-0.57-0.528-0.861-0.779c-2.244-2.078-4.5-4.167-6.768-6.291
		c-13.038-12.186-26.49-25.199-40.147-39.016c-4.634-4.682-9.279-9.448-13.948-14.31c-0.158-0.168-0.328-0.336-0.485-0.504
		c-8.854-9.208-17.757-18.74-26.671-28.584c-1.808-1.992-3.615-3.997-5.422-6.014c-0.801-0.901-1.602-1.8-2.402-2.701
		c-9.897-11.105-19.782-22.594-29.594-34.466c-2.22-2.677-4.439-5.379-6.659-8.103c-9.206-11.321-18.327-22.966-27.314-34.923
		c-0.801-1.044-1.577-2.089-2.366-3.145c-0.036-0.024-0.06-0.06-0.072-0.096c-2.499-3.35-4.997-6.723-7.484-10.121
		c-2.656-3.636-5.3-7.31-7.932-11.019c-14.676-20.625-28.866-42.114-42.342-64.395c-8.49-14.045-16.701-28.415-24.536-43.085v-0.011
		c-3.263-6.075-6.453-12.209-9.569-18.392c-96.012-189.966-130.13-428.864,32.007-691.652
		c49.352-79.989,109.087-142.763,174.789-191.634c17.284-12.858,34.991-24.756,53.039-35.74
		c31.572-19.243,64.173-35.713,97.358-49.736c298.999-126.338,645.532-53.721,722.974-17.106c0,0,200.525-531.038,803.826-463.81
		c137.42,15.318,261.654,75.703,365.295,170.398c20.788,19.003,40.765,39.376,59.844,61.057
		c9.036,10.264,17.877,20.829,26.512,31.681c9.072,11.392,17.915,23.086,26.527,35.091
		c116.339,162.162,189.816,379.044,202.211,624.099C2652.546,1003.279,2651.431,1071.708,2645.475,1141.673z"/>
	<g>
		<path fill="#F7DFC8" d="M2545.047,1201.807c-0.572,6.722-1.179,13.455-1.851,20.198c-2.633,26.8-6.028,53.822-10.216,81.062
			c-1.002,6.568-2.059,13.157-3.163,19.758c-5.289,31.605-11.636,63.463-19.074,95.531c-4.805,20.716-10.071,41.521-15.813,62.393
			c-8.882,32.332-18.887,64.828-30.05,97.436c-1.445,4.231-2.921,8.464-4.409,12.695c-13.851,39.461-29.423,79.065-46.744,118.747
			c-15.01,34.348-31.33,68.752-49.027,103.133c-7.768,15.097-15.802,30.205-24.101,45.291
			c-7.791,14.172-15.823,28.343-24.088,42.503c-1.234,2.094-2.457,4.187-3.691,6.281c-0.033,0.054-0.067,0.11-0.1,0.165l-50.58-0.11
			l-1665.537-3.635l-16.066-0.034c0,0-4.475-2.953-12.519-8.694c-4.386-3.142-9.852-7.108-16.221-11.879
			c-2.744-2.051-5.653-4.254-8.727-6.602c-17.742-13.564-40.752-32.023-66.759-54.933h-0.01c-0.673-0.606-1.345-1.202-2.039-1.807
			c-5.544-4.916-11.241-10.028-17.036-15.34c-0.87-0.793-1.742-1.599-2.612-2.403c-0.43-0.396-0.86-0.793-1.3-1.2
			c-1.157-1.069-2.314-2.138-3.482-3.229c-0.254-0.242-0.518-0.485-0.782-0.715c-2.039-1.907-4.089-3.825-6.149-5.775
			c-11.846-11.186-24.068-23.131-36.475-35.814c-4.21-4.297-8.431-8.672-12.673-13.136c-0.143-0.154-0.298-0.309-0.441-0.463
			c-8.044-8.453-16.133-17.202-24.232-26.238c-1.643-1.829-3.284-3.669-4.926-5.52c-0.728-0.827-1.455-1.652-2.182-2.479
			c-8.992-10.193-17.973-20.74-26.888-31.638c-2.017-2.457-4.033-4.938-6.05-7.438c-8.364-10.392-16.651-21.081-24.816-32.057
			c-0.728-0.958-1.433-1.918-2.149-2.887c-0.032-0.022-0.055-0.055-0.066-0.088c-2.27-3.075-4.54-6.171-6.799-9.29
			c-2.413-3.338-4.816-6.71-7.207-10.115c-13.334-18.932-26.227-38.657-38.47-59.11c-7.714-12.893-15.174-26.083-22.293-39.549
			v-0.01c-2.964-5.577-5.862-11.207-8.694-16.882c-87.232-174.375-118.23-393.667,29.08-634.888
			c44.839-73.424,99.111-131.046,158.805-175.907c15.703-11.803,31.792-22.724,48.189-32.807
			c28.685-17.664,58.305-32.782,88.455-45.654c271.657-115.97,586.501-49.312,656.861-15.702c0,0,182.188-487.456,730.319-425.745
			c124.853,14.061,237.727,69.49,331.89,156.413c18.887,17.444,37.037,36.144,54.371,56.046c8.21,9.421,16.242,19.119,24.088,29.081
			c8.243,10.457,16.276,21.191,24.101,32.211c105.701,148.854,172.458,347.936,183.72,572.88
			C2551.471,1074.772,2550.458,1137.584,2545.047,1201.807z"/>
		<path fill="#FBECDB" d="M2340.598,408.764v1449.287c-8.948,16.266-18.204,32.53-27.78,48.784l-157.924-0.33l-91.143-0.188
			l-298.447-0.628l-100.743-0.21l-1084.027-2.259c0,0-14.194-9.377-37.467-27.175c-32.508-24.86-82.726-66.14-136.644-121.216
			V687.133c43.208-32.464,89.269-58.239,136.644-78.461c271.657-115.97,586.501-49.312,656.861-15.702
			c0,0,24.816-66.404,83.706-147.102c24.937-34.183,55.99-70.923,93.865-106.273c114.936-107.277,292.638-201.649,552.748-172.37
			c124.853,14.061,237.727,69.49,331.89,156.413c17.577,16.232,34.514,33.554,50.734,51.914
			C2322.362,386.273,2331.607,397.348,2340.598,408.764z"/>
		<path fill="#FFF4E9" d="M2340.598,408.764v123.95l-1259.45,185.648l1231.725-342.811
			C2322.362,386.273,2331.607,397.348,2340.598,408.764z"/>
		<g>
			<path fill="#F8E7D4" d="M1545.76,1786.136h118.802v119.343l-1084.027-2.259c0,0-14.194-9.377-37.467-27.175
				c-32.508-24.86-82.726-66.14-136.644-121.216V944.354c0.132-0.155,0.275-0.331,0.407-0.507h4.529v208.503h109.227V816.78
				c1.389-1.346,2.755-2.667,4.133-4.011h26.513v-0.166h154.33v0.166h0.134v50.304h-0.134v34.591h0.134v50.294h-0.134v34.723h0.134
				v50.304h-0.134v0.166l16.365-0.166V769.836h173.173v33.323h0.089v50.305h-0.089v44.2h0.089v50.294h-0.089v34.723h0.089v50.304
				h-0.089v32.123h0.089v50.305h-0.089v32.133h0.089v50.294h-0.089v30.272h0.089v31.924h-0.089v3.492h195.193v287.879h72.938v72.53
				h78.626v-124.896h141.449v-339.307h22.127v-33.799h3.152v33.799h18.359v-0.043h91.75v-33.755h3.151v33.755h23.913V1786.136z"/>
			<polygon fill="#F8E7D4" points="2063.752,718.362 2063.752,1906.318 1765.305,1905.689 1765.305,718.362 			"/>
			<path fill="#F8E7D4" d="M2340.598,889.818v968.234c-8.948,16.266-18.204,32.53-27.78,48.784l-157.924-0.33V889.818H2340.598z"/>
		</g>
		<g>
			<g>
				<path fill="#A0795F" d="M1707.4,1903.245c43.11-223.732,32.025-361.021,31.971-362.751c-0.109-3.444,6.084-6.572,9.415-6.683
					c3.373-0.061,18.253-1.017,19.975,1.931c2.255,3.861,10.936,173.015-53.313,367.504H1707.4z"/>
			</g>
			<g>
				<path fill="#7693CE" d="M1511.178,1185.346l12.388-1.853c4.758-1.33,8.402-3.463,8.54-8.042l0.725-24.173
					c0.117-3.907-2.242-7.55-5.945-8.801c-11.815-3.991-22.374-13.702-19.823-28.438c0,0,6.821-35.345,6.973-36.385l45.609,1.368
					c0.088,1.049,5.619,36.764,5.619,36.764c2.714,13.524-9.57,24.053-21.713,27.256c-3.547,0.936-6.112,4.002-6.222,7.67
					l-0.735,24.502c-0.143,4.783,3.287,7.058,8.402,8.921l11.795,2.717c0.917,0.028,0.968,1.152,0.051,1.125l-45.702-1.371
					C1510.224,1186.577,1510.263,1185.762,1511.178,1185.346z"/>
				<path fill="#EBF3FA" d="M1509.164,1121.436c2.181,12.433,13.53,20.496,26.29,20.879c12.669,0.38,25.42-8.423,27.942-19.76
					c0.469-2.181,0.581-4.448,0.234-6.759c-0.287-1.921-0.708-3.816-1.221-5.654c-0.203-0.707-4.994-31.188-4.994-31.188
					l-41.413-1.244l-6.45,32.773c-0.12,0.519-0.225,1.039-0.3,1.559l-0.122,0.564l0.031,0.001c-0.075,0.52-0.166,1.025-0.226,1.546
					C1508.664,1116.716,1508.755,1119.138,1509.164,1121.436z"/>
				<path fill="#C94C43" d="M1509.164,1121.436c2.181,12.433,13.53,20.496,26.29,20.879c12.669,0.38,25.42-8.423,27.942-19.76
					c-5.071-0.734-19.121-2.455-30.168-0.666C1525.843,1123.088,1516.35,1122.369,1509.164,1121.436z"/>
				<path opacity="0.7" fill="#FFFFFF" d="M1553.322,1122.254c0.468-2.181,0.582-4.449,0.232-6.759
					c-0.286-1.921-0.707-3.816-1.218-5.653c-0.203-0.709-4.995-31.189-4.995-31.189l5.223,0.157c0,0,4.792,30.481,4.995,31.189
					c0.512,1.836,0.933,3.732,1.219,5.652c0.349,2.312,0.237,4.578-0.232,6.76c-2.521,11.336-15.272,20.139-27.942,19.759
					c-0.907-0.027-1.803-0.103-2.694-0.206C1539.703,1141.203,1550.969,1132.834,1553.322,1122.254z"/>
			</g>
			<path fill="#2C3A64" d="M1633.461,1558.294l79.612,265.408c0,0,36.407-8.889,49.841-30.258c0,0-8.972-257.985-64.069-296.508
				C1643.747,1458.412,1633.461,1558.294,1633.461,1558.294z"/>
			<path fill="#2C3A64" d="M1463.864,1900.373h129.452c1.239-0.242,2.178-0.513,2.748-0.798c8.643-4.327,7.965-29.044,0.802-46.123
				c-2.806-6.692,5.651-20.99,2.617-26.448c-5.847-10.519-41.855-29.347-48.12-1.469c-0.198,0.869-2.955,16.59-3.197,17.43v0.015
				c-7.902,26.083-43.227,37.93-63.63,41.233C1468.947,1886.747,1464.903,1895.831,1463.864,1900.373z"/>
			<path fill="#FFB27D" d="M1960.739,1021.239c0,0-30.366,36.024-69.037,20.955c0,0-8.319-20.119-8.436-34.951
				c-0.015-1.825-0.037-3.595-0.065-5.276c-0.207-16.702-0.771-26.073-0.771-26.073s0.01-0.004,0.039-0.008
				c1.76-0.734,59.115-24.281,59.067-22.326C1940.553,998.73,1960.739,1021.239,1960.739,1021.239z"/>
			<path fill="#2C3A64" d="M1689.506,1900.373H1732c8.909,0,18.808-8.921,21.286-25.249c2.478-16.342,20.789-25.25,24.753-38.618
				c3.965-13.368-16.341-32.188-16.341-32.188l-3.395-4.361l-3.531-4.548l-33.662,7.918c0,0-0.83,8.016-1.35,18.224
				c-0.36,7.372-0.557,15.896-0.136,23.367c0.991,17.828-4.993,37.02-20.827,40.488
				C1682.952,1888.875,1689.506,1900.373,1689.506,1900.373z"/>
			<g>
				<path fill="#FFB27D" d="M1683.73,1385.729l-19.471,7.245c0,0-39.203-2.541-46.321,39.575c0,0-1.635,17.605,10.786,14.583
					c12.419-3.022,7.218-3.656,24.822-7.534c17.605-3.876,31.854-15.516,33.927-28.548l7.988-12.573L1683.73,1385.729z"/>
				<path fill="#1E3D70" d="M1673.558,1404.389c-8.456-12.325-8.12-14.805-8.12-14.805s100.969-102.519,110.018-112.55
					c9.049-10.031,93.332-181.448,93.332-181.448l29.417-0.845c44.838-1.288,71.609,49.478,45.221,85.753
					c-44.497,61.172-97.996,133.827-111.125,147.82c-38.714,41.256-142.776,89.779-142.776,89.779
					S1680.202,1414.069,1673.558,1404.389z"/>
			</g>
			<path fill="#D1A586" d="M1991.633,1420.257c2.745-69.188,8.659-129.372,15.739-171.345
				c11.288-66.906,21.449-105.398,21.565-105.808c1.487-5.884,22.965-29.692,70.716-28.957
				c47.753,0.734,43.225,31.956,43.225,31.956l0,0c0.003,1.055-0.133,2.04-0.342,2.776c-0.462,1.609-44.296,164.548-42.398,374.925
				c0.028,2.954,0.351,8.06,0.146,11.46c-0.001,0.016-110.661,2.927-110.687,0
				C1985.739,1516.879,1987.622,1465.931,1991.633,1420.257z"/>
			<path fill="#E5BD9E" d="M1977.72,1522.769c0.033,2.932,1.542,5.278,3.383,5.278h0.045c1.841-0.044,3.306-2.391,3.328-5.278
				h94.834c0.033,2.932,1.543,5.278,3.384,5.278h0.043c1.873-0.044,3.361-2.468,3.34-5.432
				c-0.552-60.223,2.798-116.456,7.867-166.089c12.606-123.774,35.913-206.497,36.244-207.644c0.21-0.738,0.342-1.718,0.342-2.777
				c0,0,4.528-31.219-43.22-31.957c-47.758-0.739-69.235,23.076-70.724,28.96c-0.087,0.308-5.84,22.105-13.488,61.29
				c-2.533,12.982-5.268,27.87-8.076,44.509c-7.075,41.974-12.993,102.164-15.737,171.346
				C1975.273,1465.93,1973.863,1504.389,1977.72,1522.769z"/>
			<path fill="#DFB697" d="M1977.72,1522.769c0.033,2.932,1.542,5.278,3.383,5.278h0.045c1.841-0.044,3.306-2.391,3.328-5.278
				h94.834c0.033,2.932,1.543,5.278,3.384,5.278h0.043c1.873-0.044,3.361-2.468,3.34-5.432
				c-0.552-60.223,2.798-116.456,7.867-166.089c-15.681-78.548-76.278-138.628-90.847-152.128
				c-2.533,12.982-5.268,27.87-8.076,44.509c-7.075,41.974-12.993,102.164-15.737,171.346
				C1975.273,1465.93,1973.863,1504.389,1977.72,1522.769z"/>
			<g>
				<path fill="#D1A586" d="M2073.346,1521.668h-0.23l-0.163-0.164c-0.121-0.123-0.152-0.211-0.156-0.423l0,0
					c0-0.002,0-0.004,0-0.006c-0.002-0.07,0-0.154,0.001-0.258c-0.132-3.936-8.007-4.726-20.669-4.726
					c-2.825,0-5.872,0.035-9.098,0.073c-3.637,0.042-7.503,0.087-11.542,0.087c-12.062,0-27.94-0.365-43.788-3.214
					c-10.179-1.831-3.316-82.182,3.918-157.353c1.23-12.785,2.201-22.884,2.639-28.825c4.722-64.086,31.941-177.494,32.198-178.387
					c1.188-4.704,17.534-22.485,53.109-21.926c13.201,0.203,22.631,3.517,28.028,9.851c5.702,6.693,4.687,14.219,4.641,14.537
					c0.01,0.712-0.088,1.5-0.27,2.134c-0.147,0.615-24.675,147.328-28.701,182.71c-6.729,59.122-9.331,183.222-9.362,185.033
					c0.002,0.085,0.001,0.17-0.001,0.257l-0.017,0.534L2073.346,1521.668z M2052.129,1514.988c11.1,0,18.188,0.58,20.725,3.251
					c0.407-18.164,3.104-128.014,9.315-182.587c4.102-36.047,28.605-182.43,28.737-182.889c0.152-0.53,0.236-1.225,0.232-1.907
					c0.016-0.155,0.986-7.457-4.398-13.762c-5.184-6.071-14.333-9.249-27.192-9.447c-34.915-0.541-50.88,16.568-52.029,21.111
					c-0.267,1.042-27.513,115.09-32.162,178.181c-0.438,5.953-1.411,16.058-2.642,28.849c-2.68,27.854-6.35,66.001-8.102,98.118
					c-2.564,47.026,0.37,57.521,3.283,58.045c15.763,2.833,31.577,3.197,43.593,3.197c4.034,0,7.896-0.046,11.529-0.087
					C2046.249,1515.023,2049.299,1514.988,2052.129,1514.988z"/>
			</g>
			<path fill="#E5BD9E" d="M2093.084,1528.05h-371.806c0,0,8.66-35.921,223.985-30.572
				C2097.645,1501.264,2093.084,1528.05,2093.084,1528.05z"/>
			<g>
				<path fill="#D1A586" d="M2123.348,1903.245c-43.111-223.732-32.026-361.021-31.971-362.751c0.108-3.444-6.085-6.572-9.414-6.683
					c-3.373-0.061-18.253-1.017-19.974,1.931c-2.257,3.861-10.939,173.015,53.312,367.504H2123.348z"/>
			</g>
			<g>
				<path fill="#D1A586" d="M1776.198,1903.245c43.109-223.732,32.024-361.021,31.969-362.751c-0.108-3.444,6.085-6.572,9.417-6.683
					c3.372-0.061,18.252-1.017,19.973,1.931c2.255,3.861,10.938,173.015-53.312,367.504H1776.198z"/>
			</g>
			<g>
				<path fill="#A0795F" d="M2054.088,1903.245c-43.11-223.732-32.025-361.021-31.971-362.751c0.109-3.444-6.084-6.572-9.414-6.683
					c-3.374-0.061-18.254-1.017-19.974,1.931c-2.257,3.861-10.938,173.015,53.312,367.504H2054.088z"/>
			</g>
			<path fill="#D1A586" d="M1721.154,1539.515h371.616c4.241,0,7.71-3.471,7.71-7.712v-5.326c0-4.24-3.469-7.711-7.71-7.711
				h-371.616c-4.24,0-7.711,3.471-7.711,7.711v5.326C1713.443,1536.044,1716.914,1539.515,1721.154,1539.515z"/>
			<path fill="#2B478B" d="M2039.152,1352.864c0,0,35.115,132.729-25.879,151.984c0,0-52.529,25.091-302.675,7.645
				c0,0,10.68,110.817-109.462,328.047c0,0-35.263,9.441-57.303-16.839c0,0,46.877-313.277,62.446-382.951
				C1618.099,1387.855,1951.466,1370.498,2039.152,1352.864z"/>
			<path fill="#FFB27D" d="M1562.728,1151.411c-3.298-0.806-5.823-3.407-6.663-6.696c-3.909-15.276-15.137-22.583-16.381-20.963
				c-0.982,1.276,3.049,9.479,3.762,12.567c-23.876-0.477-16.412-15.823-36.75-18.629c-4.073-0.563-8.041,17.265,8.107,38.753
				c10.253,13.644,12.984,8.866,44.181,15.75l14.788,3.719l3.764-22.97C1577.535,1152.94,1569.666,1153.107,1562.728,1151.411z"/>
			<path fill="#ED975D" d="M1935.779,966.469c-5.532,10.252-24.508,30.308-52.578,37.635c-0.207-16.702-0.771-26.073-0.771-26.073
				s0.01-0.003,0.039-0.008C1884.058,977.597,1937.424,963.448,1935.779,966.469z"/>
			<path fill="#FFB27D" d="M1864.193,976.902c0,0,74.022,17.401,84.148-28.862c10.128-46.263,26.503-75.174-20.329-88.242
				c-46.832-13.068-59.911,2.57-67.047,17.189C1853.829,891.606,1845.2,971.182,1864.193,976.902z"/>
			<path fill="#A9453D" d="M1945.81,960.645c1.01,0.648,16.939,5.54,47.101-54.549c4.736-9.432,7.961-29.839-3.076-47.869
				c-11.037-18.029-50.174-32.205-82.69-38.375c-32.515-6.169-40.322,12.127-47.979,30.516
				c-8.039,19.303-31.252,35.195-31.252,35.195c28.04,15.663,61.811-6.74,73.51-3.056c11.701,3.684,15.833,22.122,16.71,28.033
				c0.879,5.911,2.227,10.823,16.94,5.544c14.713-5.279,6.653,20.849,4.297,25.846
				C1939.371,941.929,1937.371,955.238,1945.81,960.645z"/>
			<path fill="#2A4E96" d="M1827.15,1197.463c4.049,12.817-0.862,100.731,9.256,154.578c5.966,31.745,21.489,40.672,21.856,40.957
				c11.997,9.29,62.25,30.889,99.912,46.834c83.982,35.553,102.896-10.469,102.144-20.938
				c-0.338-4.691-35.457-261.245-59.539-335.761c-13.963-43.204-30.004-77.249-52.401-90.355
				c-2.927-1.639-13.031,4.771-27.491,14.052c-13.358,8.562-25.844,8.887-39.519,7.691l-19.257,18.967
				c-14.576,16.943-30.095,39.5-34.331,71.566c-0.318,2.368-0.592,4.885-0.819,7.561
				C1825.787,1125.674,1819.437,1173.051,1827.15,1197.463z"/>
			<path fill="#244583" d="M1825.833,1160.722c0.386,21.362,1.628,45.377,3.302,69.768c0.102,1.447,0.205,2.892,0.307,4.338
				c82.862-51.865,95.627-146.775,95.627-146.775c-40.764,1.787-73.149,11.158-98.109,24.561
				C1825.787,1125.674,1825.502,1142.207,1825.833,1160.722z"/>
			<path fill="#2A4E96" d="M1557.883,1161.987c4.317-13.442,12.505-13.626,12.505-13.626s138.633,21.429,151.138,17.937
				c12.505-3.493,118.464-105.332,118.464-105.332s40.57-42.362,74.392-32.473c29.392,8.594,41.122,29.84,45.291,49.989
				c4.966,24.015-6.657,47.97-28.939,60.414c-50.014,27.931-155.228,87.076-178.904,93.215
				c-52.698,13.665-190.759-50.678-190.759-50.678S1554.644,1172.074,1557.883,1161.987z"/>
		</g>
		<g>
			<g>
				<path fill="#7693CE" d="M1122.09,1191.156l12.387-1.853c4.759-1.33,8.403-3.462,8.541-8.041l0.725-24.174
					c0.117-3.907-2.242-7.55-5.944-8.8c-11.815-3.992-22.375-13.703-19.825-28.439c0,0,6.823-35.344,6.973-36.386l45.609,1.37
					c0.088,1.047,5.619,36.762,5.619,36.762c2.714,13.526-9.572,24.054-21.714,27.257c-3.547,0.935-6.111,4.004-6.221,7.671
					l-0.737,24.501c-0.143,4.784,3.287,7.058,8.404,8.922l11.794,2.716c0.916,0.028,0.968,1.152,0.051,1.125l-45.703-1.371
					C1121.136,1192.388,1121.174,1191.572,1122.09,1191.156z"/>
				<path fill="#EBF3FA" d="M1120.074,1127.246c2.182,12.434,13.53,20.497,26.291,20.879c12.67,0.38,25.42-8.423,27.941-19.759
					c0.469-2.182,0.582-4.449,0.234-6.76c-0.287-1.921-0.707-3.816-1.221-5.653c-0.202-0.708-4.993-31.188-4.993-31.188
					l-41.413-1.243l-6.45,32.771c-0.121,0.52-0.226,1.039-0.3,1.559l-0.122,0.565l0.03,0.001c-0.075,0.52-0.165,1.025-0.225,1.547
					C1119.574,1122.526,1119.667,1124.949,1120.074,1127.246z"/>
				<path fill="#C94C43" d="M1120.074,1127.246c2.182,12.434,13.53,20.497,26.291,20.879c12.67,0.38,25.42-8.423,27.941-19.759
					c-5.07-0.736-19.12-2.456-30.168-0.667C1136.755,1128.897,1127.262,1128.179,1120.074,1127.246z"/>
				<path opacity="0.7" fill="#FFFFFF" d="M1164.234,1128.065c0.469-2.182,0.582-4.449,0.232-6.76
					c-0.286-1.92-0.708-3.815-1.219-5.653c-0.202-0.708-4.994-31.188-4.994-31.188l5.223,0.156c0,0,4.792,30.481,4.994,31.189
					c0.513,1.837,0.933,3.732,1.22,5.653c0.349,2.311,0.236,4.578-0.232,6.76c-2.521,11.336-15.272,20.139-27.942,19.759
					c-0.907-0.027-1.804-0.104-2.694-0.208C1150.614,1147.013,1161.88,1138.646,1164.234,1128.065z"/>
			</g>
			<g>
				<path fill="#D1A586" d="M814.597,1416.452c-2.744-69.188-8.659-129.373-15.739-171.344
					c-11.286-66.907-21.448-105.4-21.565-105.808c-1.486-5.885-22.965-29.692-70.717-28.958s-43.224,31.957-43.224,31.957l0,0
					c-0.004,1.054,0.133,2.04,0.342,2.774c0.462,1.608,44.296,164.548,42.397,374.925c-0.028,2.955-0.35,8.061-0.147,11.459
					c0.002,0.017,110.661,2.929,110.688,0C820.491,1513.075,818.61,1462.126,814.597,1416.452z"/>
				<path fill="#E5BD9E" d="M828.511,1518.964c-0.032,2.931-1.542,5.278-3.383,5.278h-0.045c-1.839-0.043-3.306-2.39-3.327-5.278
					h-94.836c-0.033,2.931-1.542,5.278-3.383,5.278h-0.045c-1.873-0.043-3.36-2.468-3.338-5.433
					c0.55-60.222-2.8-116.456-7.868-166.087c-12.607-123.774-35.914-206.499-36.245-207.644c-0.209-0.739-0.341-1.72-0.341-2.777
					c0,0-4.529-31.219,43.219-31.958c47.759-0.738,69.236,23.075,70.724,28.96c0.088,0.309,5.84,22.105,13.488,61.292
					c2.534,12.981,5.268,27.869,8.077,44.509c7.075,41.974,12.992,102.163,15.736,171.345
					C830.957,1462.123,832.368,1500.583,828.511,1518.964z"/>
				<path fill="#DFB697" d="M828.511,1518.964c-0.032,2.931-1.542,5.278-3.383,5.278h-0.045c-1.839-0.043-3.306-2.39-3.327-5.278
					h-94.836c-0.033,2.931-1.542,5.278-3.383,5.278h-0.045c-1.873-0.043-3.36-2.468-3.338-5.433
					c0.55-60.222-2.8-116.456-7.868-166.087c15.68-78.548,76.277-138.628,90.846-152.128c2.534,12.981,5.268,27.869,8.077,44.509
					c7.075,41.974,12.992,102.163,15.736,171.345C830.957,1462.123,832.368,1500.583,828.511,1518.964z"/>
				<g>
					<path fill="#D1A586" d="M732.352,1517.865l-0.02-0.602c-0.003-0.088-0.003-0.173-0.001-0.258
						c-0.032-1.811-2.633-125.91-9.363-185.033c-4.022-35.335-28.553-182.095-28.704-182.722c-0.178-0.625-0.276-1.413-0.272-2.207
						c-0.04-0.235-1.056-7.761,4.647-14.454c5.397-6.333,14.826-9.648,28.028-9.851c35.606-0.531,51.922,17.223,53.114,21.943
						c0.252,0.882,27.491,114.575,32.193,178.371c0.438,5.941,1.41,16.039,2.64,28.824c7.232,75.17,14.096,155.522,3.916,157.352
						c-15.848,2.85-31.726,3.215-43.788,3.215c-0.001,0-0.001,0-0.002,0c-4.038,0-7.903-0.045-11.539-0.087
						c-3.226-0.038-6.272-0.073-9.098-0.073c-12.662,0-20.538,0.791-20.669,4.727c0.007,0.42,0.007,0.523-0.155,0.688l-0.161,0.164
						L732.352,1517.865z M728.273,1123.83c-0.526,0-1.055,0.003-1.589,0.012c-12.871,0.198-22.024,3.383-27.206,9.464
						c-5.382,6.316-4.4,13.59-4.39,13.662c0.002,0.765,0.087,1.461,0.238,1.992c0.132,0.46,24.64,146.898,28.737,182.888
						c6.211,54.569,8.907,164.411,9.315,182.587c2.536-2.672,9.625-3.252,20.724-3.252c2.83,0,5.88,0.035,9.11,0.073
						c3.632,0.041,7.493,0.087,11.526,0.087c0.001,0,0.002,0,0.002,0c12.017,0,27.83-0.364,43.593-3.198
						c2.914-0.523,5.848-11.018,3.283-58.044c-1.751-32.117-5.421-70.264-8.101-98.118c-1.231-12.792-2.203-22.895-2.641-28.848
						c-4.73-64.172-31.894-177.139-32.161-178.176C777.583,1140.479,762.098,1123.83,728.273,1123.83z"/>
				</g>
				<path fill="#E5BD9E" d="M713.146,1524.245h371.806c0,0-8.66-35.921-223.985-30.571
					C708.586,1497.46,713.146,1524.245,713.146,1524.245z"/>
				<g>
					<path fill="#D1A586" d="M682.883,1899.441c43.109-223.733,32.025-361.022,31.97-362.751c-0.108-3.444,6.085-6.572,9.416-6.685
						c3.373-0.06,18.253-1.016,19.974,1.932c2.255,3.861,10.938,173.014-53.312,367.504H682.883z"/>
				</g>
				<g>
					<path fill="#D1A586" d="M1030.033,1899.441c-43.109-223.733-32.024-361.022-31.97-362.751c0.108-3.444-6.085-6.572-9.415-6.685
						c-3.373-0.06-18.253-1.016-19.974,1.932c-2.256,3.861-10.938,173.014,53.311,367.504H1030.033z"/>
				</g>
				<g>
					<path fill="#A0795F" d="M1098.831,1899.441c-43.109-223.733-32.025-361.022-31.97-362.751c0.109-3.444-6.085-6.572-9.416-6.685
						c-3.373-0.06-18.253-1.016-19.974,1.932c-2.256,3.861-10.936,173.014,53.312,367.504H1098.831z"/>
				</g>
				<g>
					<path fill="#A0795F" d="M752.144,1899.441c43.11-223.733,32.024-361.022,31.97-362.751c-0.108-3.444,6.084-6.572,9.416-6.685
						c3.373-0.06,18.253-1.016,19.975,1.932c2.254,3.861,10.935,173.014-53.314,367.504H752.144z"/>
				</g>
				<path fill="#D1A586" d="M1085.076,1535.71H713.463c-4.242,0-7.712-3.471-7.712-7.712v-5.325c0-4.242,3.47-7.712,7.712-7.712
					h371.614c4.241,0,7.712,3.47,7.712,7.712v5.325C1092.788,1532.239,1089.318,1535.71,1085.076,1535.71z"/>
			</g>
			<path fill="#2C3A64" d="M892.941,832.647c0,0-50.412-15.979-87.328,35.262c-36.916,51.241-65.016,54.548-55.098,77.138
				c9.918,22.591-16.346,35.857-6.429,56.751c9.918,20.896,20.67,18.595,10.286,39.269c-12.565,25.013,4.221,56.056,12.489,66.212
				c21.304,26.174,12.055,76.856,44.564,82.917c0,0,159.522-64.932,173.554-85.617c14.029-20.684,8.52-54.293-12.418-81.292
				c-20.937-26.998,16.53-24.794,8.265-49.038c-8.265-24.243-13.773-26.997-6.06-53.445c7.714-26.447-8.816-23.141-15.979-43.528
				c-7.162-20.386-3.824-24.979-23.325-36.732C914.745,828.057,892.941,832.647,892.941,832.647z"/>
			<path fill="#ED985F" d="M968.596,1059.101c0,0,66.226,138.521,75.594,138.848c9.366,0.328,88.708,23.125,88.708,23.125v12.661
				h-115.157c0,0-88.427-112.019-70.073-142.141C966.021,1061.472,968.596,1059.101,968.596,1059.101z"/>
			<path fill="#ED985F" d="M1204.431,1489.099c0,0,94.679,334.602,120.664,362.909l-41.048-9.774c0,0,0.98-8.559,0-11.175
				c-20.016-53.474-119.193-126.204-133.612-285.397L1204.431,1489.099z"/>
			<path fill="#FFB27D" d="M922.432,1109.682c-62.052,25.323-80.731-73.754-76.708-74.614c6.347-6.711,13.455-31.141,10.138-66.757
				l3.162,0.32l46.602,5.002c0,0-1.09,17.532-0.142,32.442c0.055,1.047,0.132,2.072,0.221,3.074
				c1.057,12.079,10.743,20.663,13.454,23.087C923.27,1032.457,938.984,1102.927,922.432,1109.682z"/>
			<path fill="#ED985F" d="M905.484,1006.075c-24.409-2.81-39.561-24.618-46.46-37.434l46.602,4.992
				C905.627,973.633,904.537,991.165,905.484,1006.075z"/>
			<path fill="#FFB27D" d="M923.123,988.094c0,0-68.919,7.284-72.794-35.704c-3.876-42.989-15.384-71,28.457-77.469
				c43.838-6.47,53.879,9.162,58.663,23.196C942.232,912.151,940.951,985.091,923.123,988.094z"/>
			<path fill="#FFB27D" d="M822.693,1024.39c0,0,41.825-22.856,102.315,1.427c11.373,4.566,20.318,13.676,24.626,25.146
				c9.921,26.407-0.933,54.478,0.476,72.991c0,0-22.501,107.056-24.935,155.726c-2.434,48.667,29.312,97.414,17.264,100.829
				c-23.252,6.593-168.543,82.268-167.014,26.815c0.92-33.39,64.623-100.004,64.898-134.073
				C840.598,1239.184,774.527,1044.225,822.693,1024.39z"/>
			<path fill="#FFB27D" d="M808.367,1333.766c0,0-79.892,97.801-49.206,150.427c37.34,64.038,353.855,18.672,375.755,28.097
				c0,0-29.081,55.503-6.253,205.666c5.061,33.29,28.293,95.259,12.862,122.584l35.403-18.305c0,0-1.606-125.095,36.413-327.759
				c0,0-0.552-41.422-19.628-51.604C1153.5,1421.409,808.367,1333.766,808.367,1333.766z"/>
			<path fill="#FFB27D" d="M1218.256,1883.054c0,0-8.221-2.436-11.527-6.843c-3.306-4.409-18.426-29.331-25.192-40.287
				c-6.766-10.954-6.766-37.126-6.766-37.126l-29.477-8.541c0,0,11.746,35.825-3.769,50.283l20.298,22.722
				c0,0,25.244,23.692,27.085,24.244c1.841,0.55,21.677,4.407,21.677,4.407L1218.256,1883.054z"/>
			<path fill="#F99746" d="M1193.715,1442.873c0,0-6.084,44.398-37.324,89.931c-16.806,24.52-40.894,49.357-75.242,67.794
				c-22.381,12.023-49.126,21.313-81.039,26.018c0,0,14.215-93.381-12.385-101.282h-0.012c-1.112-0.33-2.303-0.506-3.559-0.529
				c-31.396-0.419-221.154,7.009-240.748-55.407c-19.328-61.522,76.664-186.673,76.323-192.106
				c-8.74-138.077-23.726-218.035-14.921-231.414c11.549-17.554,48.96-30.238,48.96-30.238s43.737,59.672,80.223,76.52
				c12.97,5.995-8.981-66.337-8.981-66.337s30.746,3.037,53.886,45.677c0,0-13.433,13.862-19.196,19.923
				c0,0,12.375,32.773,13.598,45.18c1.256,12.805-0.958,25.941-8.034,55.959c-0.552,2.336-1.223,4.749-2.005,7.25
				c-7.02,22.469-22.689,52.321-33.412,98.417c-0.442,1.884-0.429,4.419-0.044,7.438c2.656,21.168,23.737,65.567,38.789,67.495
				C985.784,1375.367,1178.309,1427.599,1193.715,1442.873z"/>
			<path fill="#ED7D2B" d="M929.848,1298.229c-0.442,1.884-0.429,4.419-0.044,7.438
				c-97.954-121.405-104.026-244.219-104.026-244.219l137.482,138.364C956.241,1222.281,940.571,1252.133,929.848,1298.229z"/>
			<path fill="#FFB27D" d="M817.823,1043.258c-1.633,5.027-8.764,26.487-5.599,30.721
				c20.367,27.247,138.182,156.016,172.265,162.627c37.632,7.3,135.62-86.041,135.62-86.041l-12.006-5.676
				c0,0-109.433,46.019-115.368,40.389c-7.141-6.776-87.324-101.197-105.207-120.666
				C860.379,1035.06,826.845,1015.513,817.823,1043.258z"/>
			<path fill="#ED985F" d="M1360.777,1883.054c0,0-12.996-5.374-19.975-13.063c-20.547-22.64-22.334-25.839-32.177-44.699
				c-4.037-7.733-24.578,15.249-24.578,15.249l38.365,47.241l22.248,8.08L1360.777,1883.054z"/>
			<path fill="#F99746" d="M853.773,1015.642c0,0-49.225-1.817-51.153,35.947c-1.926,37.764,25.577,54.173,25.577,54.173
				s36.071,12.38,71.798-33.556c0,0-17.244-18.064-25.876-26.328C861.106,1033.42,853.773,1015.642,853.773,1015.642z"/>
			<polygon fill="#C94C43" points="1139.158,1864.105 1146.596,1899.44 1154.385,1899.44 1154.385,1867.12 			"/>
			<polygon fill="#C94C43" points="1281.68,1864.105 1289.118,1899.44 1296.907,1899.44 1296.907,1867.12 			"/>
			<path fill="#C94C43" d="M1373.682,1899.441h-55.352c0,0-6.171-27.549-20.574-28.464c-14.415-0.915-21.224-10.38-17.842-18.073
				c2.16-4.925,3.461-8.947,4.133-12.363c0,0,24.431,9.036,33.434,31.262c8.992,22.227,43.297,11.252,43.297,11.252
				C1368.127,1886.349,1373.946,1888.146,1373.682,1899.441z"/>
			<path fill="#C94C43" d="M1231.159,1899.441h-55.351c0,0-6.171-27.549-20.574-28.464c-14.415-0.915-21.224-10.38-17.841-18.073
				c2.16-4.925,3.46-8.947,4.132-12.363c0,0,24.43,9.036,33.433,31.262c8.992,22.227,43.297,11.252,43.297,11.252
				C1225.605,1886.349,1231.425,1888.146,1231.159,1899.441z"/>
			<path fill="#FFB27D" d="M1106.826,1145.446c0,0,10.613-5.8,19.156-6.313c8.542-0.512,18.76-4.509,17.974-1.467
				c-0.787,3.041-11.625,7.387-9.199,8.876c2.365,1.452,9.284,3.651,14.854,3.344c5.57-0.307,16.579-7.427,14.418-2.537
				c-2.161,4.892-13.679,15.323-23.509,14.418c-8.718-0.803-26.755-5.314-26.755-5.314L1106.826,1145.446z"/>
			<path fill="#ED985F" d="M1132.898,1221.074c0,0,26.664-7.33,33.627-6.963c6.963,0.368,33.042,13.168,33.408,19.624h-71.269
				L1132.898,1221.074z"/>
			<path fill="#2C3A64" d="M933.267,874.396c-11.821-11.982-19.63-8.426-23.8-4.135c-66.204-22.737-94.486,37.953-94.486,37.953
				s-22.938,137.69-0.367,118.882c5.51-4.592,16.401-10.06,23.094-7.114c10.821,4.761,51.38,8.879,29.564-31.421
				c-14.817-27.372-2.537-37.316-2.537-37.316c33.216-19.099,49.593-68.841,50.525-74.059c4.551,3.408,15.566,13.574,16.897,21.947
				c3.122,19.653,11.039,23.85,17.538,22.499C949.694,921.631,950.995,892.365,933.267,874.396z"/>
			<path fill="#ED7D2B" d="M1156.391,1532.804c1.884-19.283-15.251-48.574-27.726-65.974
				c-15.802-22.04-160.071-93.667-160.071-93.667c17.19,2.204,209.715,54.436,225.121,69.71
				C1193.715,1442.873,1187.631,1487.271,1156.391,1532.804z"/>
			<path fill="#ED7D2B" d="M1000.11,1626.615c0,0,14.215-93.381-12.385-101.282c57.049-1.554,93.425,75.265,93.425,75.265
				C1058.768,1612.621,1032.023,1621.91,1000.11,1626.615z"/>
		</g>
		<g>
			<g>
				<g>
					<path fill="#6BB7BF" d="M1425.781,830.86c-31.877-6.835-32.419-32.911-32.419-32.911
						C1430.908,809.813,1425.781,830.86,1425.781,830.86z"/>
					<path fill="#6BB7BF" d="M1427.971,824.913c0,0,19.89,8.074,34.028-12.211C1461.999,812.702,1439.051,808.81,1427.971,824.913z"
						/>
					<g>
						<path fill="#6BB7BF" d="M1384.333,1218.026l-4.118,4.741c-0.624,0.719-1.812,0.269-1.811-0.682
							c0.232-134.225,17.275-253.474,31.589-323.831c15.621-76.79,31.464-122.186,31.622-122.635l0,0
							c-0.158,0.448-14.448,46.573-30.019,123.14c-14.335,70.478-30.734,162.586-26.585,317.455
							C1385.027,1216.878,1384.769,1217.524,1384.333,1218.026z"/>
					</g>
					<path fill="#F99746" d="M1441.344,757.322c-5.084,4.086-24.554,21.5-5.667,34.931c0,0,14.476,4.585,19.272-6.567
						c3.659-8.511,4.648-18.002,4.911-22.021c0.069-1.048-0.719-1.933-1.762-2.029c-1.114-0.103-2.601-0.35-4.089-0.928
						c-1.792-0.695-2.701-3.401-5.122-3.995c-1.517-0.372-3.06-0.693-4.825-0.537
						C1443.062,756.264,1442.125,756.694,1441.344,757.322z"/>
					<path fill="#6BB7BF" d="M1430.536,787.393c0,0,5.763,4.621,3.632,12.002l-0.058,2.731c0,0,1.536-6.828,8.604-8.939
						C1442.713,793.187,1436.339,793.894,1430.536,787.393z"/>
					<path fill="#8AD8DB" d="M1425.781,830.86c-31.877-6.835-32.419-32.911-32.419-32.911S1418.615,811.817,1425.781,830.86z"/>
				</g>
				<g>
					<path fill="#6BB7BF" d="M1395.154,812.998c0,0-20.048,7.673-33.776-12.893C1361.378,800.105,1384.399,796.674,1395.154,812.998
						z"/>
					<g>
						<path fill="#6BB7BF" d="M1430.908,1206.905l4.023,4.823c0.61,0.731,1.807,0.306,1.824-0.647
							c2.456-134.201-12.194-253.768-25.095-324.398c-14.079-77.086-29.01-122.791-29.158-123.243l0,0
							c0.149,0.45,13.511,46.852,27.546,123.718c12.919,70.751,27.472,163.169,20.22,317.923
							C1430.236,1205.744,1430.482,1206.396,1430.908,1206.905z"/>
					</g>
					<path fill="#F99746" d="M1383.14,745.152c5.001,4.187,24.118,21.987,4.965,35.036c0,0-14.564,4.294-19.135-6.951
						c-3.489-8.582-4.287-18.092-4.469-22.115c-0.049-1.048,0.757-1.918,1.803-1.993c1.115-0.081,2.607-0.297,4.105-0.845
						c1.805-0.66,2.77-3.346,5.202-3.892c1.524-0.343,3.074-0.631,4.835-0.439C1381.442,744.06,1382.371,744.508,1383.14,745.152z"
						/>
					<path fill="#6BB7BF" d="M1393.342,775.433c0,0-5.854,4.506-3.871,11.928l0.003,2.732c0,0-1.398-6.858-8.424-9.111
						C1381.05,780.982,1387.411,781.816,1393.342,775.433z"/>
				</g>
				<g>
					<path fill="#6BB7BF" d="M1403.652,789.492c0,0,21.174,3.541,30.548-19.338C1434.199,770.153,1410.954,771.358,1403.652,789.492
						z"/>
					<g>
						<path fill="#6BB7BF" d="M1446.792,1182.659l-2.985,5.526c-0.453,0.838-1.71,0.658-1.917-0.273
							c-29.044-131.044-38.416-251.139-39.79-322.925c-1.5-78.348,4.062-126.106,4.117-126.579l0,0
							c-0.056,0.472-3.943,48.604-2.443,126.724c1.381,71.906,5.462,165.376,43.283,315.611
							C1447.219,1181.387,1447.109,1182.073,1446.792,1182.659z"/>
					</g>
					<path fill="#F99746" d="M1401.963,720.61c-4.07,5.099-19.274,26.337,2.088,35.326c0,0,15.128,1.318,17.375-10.611
						c1.715-9.104,0.611-18.583-0.009-22.563c-0.161-1.036-1.123-1.728-2.162-1.595c-1.11,0.143-2.615,0.226-4.193-0.013
						c-1.901-0.289-3.379-2.73-5.87-2.782c-1.562-0.034-3.139-0.008-4.827,0.527C1403.41,719.204,1402.589,719.828,1401.963,720.61z
						"/>
					<path fill="#6BB7BF" d="M1397.973,752.314c0,0,6.633,3.254,6.162,10.923l0.538,2.678c0,0,0.01-6.998,6.448-10.601
						C1411.122,755.313,1405.055,757.393,1397.973,752.314z"/>
				</g>
				<path fill="#6BB7BF" d="M1421.122,765.914c0,0,0-16.762,14.445-22.023C1435.568,743.892,1438.748,757.876,1421.122,765.914z"/>
				<path fill="#ED9F4A" d="M1387.196,738.976c0,0,0.426-12.793-11.408-16.48C1375.788,722.496,1372.94,734.403,1387.196,738.976z"
					/>
				<path fill="#ED9F4A" d="M1426.018,815.93c0.428,0.37,6.168-12.446-5.511-22.742
					C1420.508,793.187,1415.625,806.901,1426.018,815.93z"/>
				<path fill="#6BB7BF" d="M1434.199,814.93c-0.324,0.089-0.092-6.376,5.978-7.299
					C1440.177,807.631,1441.206,813.01,1434.199,814.93z"/>
				<path fill="#6BB7BF" d="M1373.688,793.187c0,0-5.122-10.605-21.514-8.761C1352.174,784.427,1354.633,795.8,1373.688,793.187z"/>
			</g>
			<path fill="#F99746" d="M1475.447,1220.812l-50.077-337.124c-0.499-3.349-3.373-5.829-6.759-5.829h-15.617
				c-3.179,0-5.876,2.335-6.332,5.481l-48.917,337.147c-1.014,6.987,4.405,13.249,11.465,13.249h105.092
				C1471.184,1233.737,1476.458,1227.62,1475.447,1220.812z"/>
			<g>
				<path fill="#FFB278" d="M1382.491,1223.539l25.967-345.601c-2.797,0.374-5.069,2.542-5.483,5.402l-48.917,337.147
					c-1.015,6.986,4.404,13.249,11.465,13.249h21.007C1383.823,1231.3,1382.185,1227.6,1382.491,1223.539z"/>
				<path fill="#FFB278" d="M1441.52,1233.737h29.094c2.552,0,4.881-0.845,6.752-2.251L1441.52,1233.737z"/>
			</g>
		</g>
		<g>
			<path fill="#2B478B" d="M1307.983,1030.241v31.345c0,2.269-1.422,4.126-3.16,4.126h-8.603c-1.739,0-3.161-1.856-3.161-4.126
				v-31.236c0.369-0.068,0.748-0.108,1.138-0.108H1307.983z"/>
			<path fill="#2B478B" d="M1303.732,1052.83h-5.559c-12.221,0-22.22,9.999-22.22,22.22v150.344c0,4.468,3.655,8.124,8.122,8.124
				h33.74c4.002,0,7.28-3.276,7.28-7.28v-152.046C1325.095,1062.443,1315.482,1052.83,1303.732,1052.83z"/>
			<g>
				<path fill="#233862" d="M1307.983,1017.196v15.774c0,0.856-1.422,1.556-3.16,1.556h-8.603c-1.739,0-3.161-0.7-3.161-1.556
					v-15.774c0-0.855,1.422-1.556,3.161-1.556h8.603C1306.561,1015.64,1307.983,1016.34,1307.983,1017.196z"/>
				<rect x="1275.953" y="1084.954" fill="#233862" width="49.142" height="94.477"/>
			</g>
		</g>
		<g>
			<g>
				<path fill="#C69D7F" d="M1625.025,1899.441c-3.802,0-7.053-2.744-7.703-6.49l-37.753-219.865l-54.304-316.21l-15.185-88.422
					l38.679-1.136l6.711,51.329l47.12,360.719l27.934,213.815C1630.953,1896.499,1628.375,1899.441,1625.025,1899.441z"/>
			</g>
			<g>
				<path fill="#C69D7F" d="M1229.231,1268.454l-17.212,100.212v0.011l-47.539,276.815l-42.503,247.458
					c-0.639,3.747-3.89,6.49-7.692,6.49c-3.35,0-5.94-2.942-5.499-6.259l36.651-280.528l39.197-300.065l5.918-45.27
					L1229.231,1268.454z"/>
			</g>
			<path fill="#A0795F" d="M1212.019,1368.667c2.259-43.066-27.385-56.078-27.385-56.078l5.918-45.27l38.679,1.136
				L1212.019,1368.667z"/>
			<path fill="#A0795F" d="M1555.469,1318.648c-25.059,11.362-30.205,38.228-30.205,38.228l-15.185-88.422l38.679-1.136
				L1555.469,1318.648z"/>
		</g>
		<path fill="#E0B594" d="M1733.649,1233.737h-727.991c-17.406,0-31.646,14.239-31.646,31.645v6.139
			c0,17.406,14.241,31.646,31.646,31.646h727.991c17.406,0,31.645-14.24,31.645-31.646v-6.139
			C1765.294,1247.976,1751.054,1233.737,1733.649,1233.737z"/>
		<path fill="#E5BD9E" d="M454.613,654.326v1147.238c-15.45-14.226-31.648-29.83-48.189-46.734V687.133
			C422.127,675.331,438.216,664.409,454.613,654.326z"/>
		<path fill="#FFF4E9" d="M1908.639,239.656l-625.004,206.211c24.937-34.183,55.99-70.923,93.865-106.273L1908.639,239.656z"/>
		<circle fill="#FFF4E9" cx="1614.855" cy="457.557" r="37.321"/>
		<path fill="#E5BD9E" d="M2364.699,440.975V1812.76c-7.768,15.097-15.802,30.205-24.101,45.291
			c-7.791,14.172-15.823,28.343-24.088,42.503V379.684c8.21,9.421,16.242,19.119,24.088,29.081
			C2348.841,419.222,2356.875,429.955,2364.699,440.975z"/>
		<g>
			<path fill="#599DAD" d="M2494.929,1480.749c-8.882,32.332-18.887,64.828-30.05,97.436c-1.445,4.231-2.921,8.464-4.409,12.695
				c-13.851,39.461-29.423,79.065-46.744,118.747c-11.351,3.736-22.404,6.447-32.112,7.913
				c-43.76,6.589-30.227-11.395-15.152-38.062c15.075-26.667,62.78-38.601,73.667-50.878c10.886-12.287-11.626-12.308-37.986-0.275
				c-26.358,12.045-29.962,44.145-72.254,64.398c-42.294,20.254-105.923-49.919-105.923-49.919
				c33.709-1.719,81.832-38.315,80.091-49.511c-1.741-11.196-81.699,19.317-95.364,20.784
				c-13.664,1.465-44.761-15.539-49.578-70.593c-4.814-55.055,85.437-70.416,85.437-70.416s89.546,66.58,107.001,62.547
				c17.466-4.043-65.435-71.88-65.435-71.88c31.197-14.999,128.16-5.587,128.16-5.587s32.308,104.158,48.233,95.948
				c15.923-8.221-33.303-90.769-33.303-90.769C2452.735,1461.905,2479.865,1473.266,2494.929,1480.749z"/>
			<g>
				<path fill="#599DAD" d="M2464.879,1578.184c-1.445,4.231-2.921,8.464-4.409,12.695c-38.116-20.871-112.499-41.18-257.011-45.909
					C2203.459,1544.971,2377.778,1538.249,2464.879,1578.184z"/>
			</g>
		</g>
		<g>
			<path fill="#6BB7BF" d="M295.202,1623.596c-2.413-3.338-4.816-6.71-7.207-10.115c-13.334-18.932-26.227-38.657-38.47-59.11
				c1.014-38.117-0.893-75.572-0.893-75.572s127.674-61.413,177.781-56.564c0,0-79.199,134.142-53.336,130.914
				c25.863-3.229,114.747-138.991,114.747-138.991s130.915-24.244,151.929,53.334c21.004,77.578-12.937,116.369-32.332,121.217
				c-19.395,4.848-143.84,3.229-140.6,19.395c3.229,16.155,87.265,42.018,134.143,27.472c0,0-51.726,127.674-119.596,121.217
				c-61.402-5.851-84.456-40.795-119.399-49.798c-8.992-10.193-17.973-20.74-26.888-31.638c-2.017-2.457-4.033-4.938-6.05-7.438
				c-8.364-10.392-16.651-21.081-24.816-32.057L295.202,1623.596z"/>
			<g>
				<path fill="#599DAD" d="M304.217,1635.861c53.39-40.421,139.112-88.862,275.668-144.104
					c-3.703,1.2-172.822,56.399-284.682,131.838L304.217,1635.861z"/>
			</g>
		</g>
		<g>
			<path fill="#86D1CD" d="M2529.817,1322.825c-5.289,31.605-11.636,63.463-19.074,95.531c-43.406-0.288-91.354-10.338-124.27-23.67
				c-64.134-25.974-31.604-39.419,9.918-63.309C2434.817,1309.26,2500.837,1326.385,2529.817,1322.825z"/>
			<path fill="#86D1CD" d="M2545.047,1201.807c-0.572,6.722-1.179,13.455-1.851,20.198c-2.633,26.8-6.028,53.822-10.216,81.062
				c-10.677-5.29-27.791-10.006-47.813-12.134c-45.082-4.781-75.508,35.562-148.557,29.148
				c-73.06-6.401-102.847-151.531-102.847-151.531c46.734,24.53,140.667,13.576,147.246-2.888
				c6.567-16.462-125.372-39.043-144.932-47.946c-19.57-8.916-47.901-56.564-10.534-134.517
				c37.356-77.954,171.081-26.767,171.081-26.767s67.528,160.931,94.252,169.405c26.722,8.464-30.867-148.874-30.867-148.874
				c22.227,1.917,56.168,18.293,88.411,36.892C2551.471,1074.772,2550.458,1137.584,2545.047,1201.807z"/>
			<g>
				<path fill="#6BB7BF" d="M2284.09,1020.533c2.468,1.333,156.568,84.962,260.956,181.274c-0.572,6.722-1.179,13.455-1.851,20.198
					C2494.159,1169.563,2413.825,1103.104,2284.09,1020.533z"/>
			</g>
		</g>
	</g>
</g>
</svg>
