<svg width="240" height="240" viewBox="0 0 240 240" fill="none" xmlns="http://www.w3.org/2000/svg">
<ellipse cx="120" cy="119.5" rx="73" ry="51.5" fill="#1FAA59"/>
<path fill-rule="evenodd" clip-rule="evenodd" d="M214.449 119.663C208.513 113.571 207.189 104.293 211.183 96.7587C214.035 91.3865 214.231 84.9763 211.723 79.4341C209.213 73.8899 204.279 69.8457 198.385 68.4977C190.118 66.6096 184.032 59.5254 183.354 51.0091C182.872 44.9349 179.6 39.4327 174.516 36.1386C169.43 32.8444 163.113 32.1304 157.433 34.2105C149.465 37.1266 140.548 34.4845 135.412 27.6903C131.746 22.8461 126.046 20 120.004 20C113.96 20 108.261 22.8461 104.595 27.6923C99.459 34.4845 90.5386 37.1266 82.5763 34.2105C76.8941 32.1304 70.5739 32.8444 65.4917 36.1386C60.4055 39.4327 57.1354 44.9329 56.6514 51.0091C55.9734 59.5254 49.8851 66.6076 41.6228 68.4977C35.7266 69.8457 30.7924 73.8899 28.2824 79.4361C25.7703 84.9783 25.9703 91.3865 28.8224 96.7607C32.8185 104.295 31.4925 113.571 25.5543 119.665C21.3181 124.014 19.336 130.104 20.1981 136.138C21.0581 142.17 24.6602 147.45 29.9404 150.421C37.3407 154.581 41.2028 163.105 39.4748 171.467C38.2427 177.431 39.8428 183.636 43.8009 188.246C47.7591 192.852 53.6233 195.332 59.6575 194.95C68.1158 194.414 75.9341 199.482 78.9622 207.463C81.1263 213.155 85.7985 217.499 91.5987 219.217C97.3969 220.935 103.661 219.823 108.531 216.213C115.36 211.155 124.656 211.155 131.48 216.213C136.354 219.823 142.613 220.935 148.415 219.217C154.213 217.499 158.887 213.155 161.049 207.463C164.079 199.482 171.9 194.416 180.356 194.95C186.388 195.332 192.25 192.852 196.209 188.246C200.169 183.636 201.767 177.433 200.537 171.467C198.809 163.103 202.667 154.581 210.069 150.421C215.351 147.452 218.955 142.17 219.811 136.138C220.669 130.102 218.689 124.012 214.449 119.663ZM104.774 150.183L109.925 155L114.967 150.061L170 96.1555L159.68 85L109.925 133.883L80.0665 106.267L70 117.665L104.774 150.183Z" fill="#1FAA59"/>
<line x1="75.5955" y1="117.703" x2="101.703" y2="149.405" stroke="white" stroke-width="25" stroke-linecap="round"/>
<line x1="102.134" y1="149.452" x2="165.452" y2="99.8657" stroke="white" stroke-width="25" stroke-linecap="round"/>
</svg>
