<svg xmlns="http://www.w3.org/2000/svg" xmlns:xlink="http://www.w3.org/1999/xlink" viewBox="0 0 24 30" version="1.1" x="0px" y="0px"><title>verified</title><desc>Created with Sketch.</desc><g stroke="none" stroke-width="1" fill="none" fill-rule="evenodd"><g><polygon transform="translate(12.000000, 12.000000) scale(1, -1) translate(-12.000000, -12.000000) " points="24 0 0 0 0 24 24 24"/><path d="M21.4449172,11.9663483 C20.8512955,11.357127 20.7188906,10.4292946 21.1183052,9.67586829 C21.4035157,9.13864951 21.4231164,8.4976271 21.1723072,7.94340773 C20.921298,7.38898836 20.42788,6.98457422 19.8384584,6.84976951 C19.0118281,6.66096291 18.4032059,5.95253815 18.3354034,5.10090838 C18.2872016,4.49348715 17.9599896,3.94326792 17.451571,3.61385641 C16.9429524,3.28444489 16.3113293,3.2130424 15.7433085,3.42104967 C14.9464793,3.71265986 14.0548467,3.44845063 13.5412279,2.76902688 C13.1746145,2.28460995 12.6045936,2 12.0003715,2 C11.3959493,2 10.8261285,2.28460995 10.4595151,2.76922689 C9.94589626,3.44845063 9.05386361,3.71265986 8.25763446,3.42104967 C7.68941366,3.2130424 7.05739053,3.28444489 6.54917192,3.61385641 C6.0405533,3.94326792 5.71354133,4.49328715 5.66513956,5.10090838 C5.59733708,5.95253815 4.98851479,6.6607629 4.16228455,6.84976951 C3.57266296,6.98457422 3.0792449,7.38898836 2.82823571,7.94360774 C2.57702652,8.49782711 2.59702725,9.13864951 2.88223769,9.67606829 C3.28185232,10.4294946 3.14924746,11.357127 2.55542572,11.9665484 C2.13181022,12.4013635 1.93360296,13.0103848 2.01980612,13.6138059 C2.10580927,14.217027 2.46602245,14.7450455 2.99404178,15.0420558 C3.73406887,15.4580704 4.12028301,16.3105002 3.94747668,17.1467294 C3.82427217,17.7431503 3.98427803,18.3635719 4.38009252,18.8245881 C4.77590701,19.2852042 5.36232848,19.5332128 5.96575057,19.4950115 C6.81158153,19.4414096 7.59341015,19.9482273 7.89622123,20.7462552 C8.11262916,21.3154751 8.57984626,21.7498903 9.15986749,21.9216963 C9.73968872,22.0935023 10.3661116,21.9822984 10.8531295,21.6212858 C11.5359545,21.1154681 12.4655885,21.1154681 13.1480135,21.6212858 C13.6354313,21.9822984 14.2612542,22.0935023 14.8414755,21.9216963 C15.4212967,21.7498903 15.8887138,21.3154751 16.1049217,20.7462552 C16.4079328,19.9482273 17.1899614,19.4416096 18.0355924,19.4950115 C18.6388145,19.5332128 19.2250359,19.2852042 19.6208504,18.8245881 C20.0168649,18.3635719 20.1766708,17.7433503 20.0536663,17.1467294 C19.8808599,16.3103002 20.2666741,15.4580704 21.0069012,15.0420558 C21.5351205,14.7452455 21.8955337,14.217027 21.9811368,13.6138059 C22.06694,13.0101848 21.8689327,12.4011635 21.4449172,11.9663483 Z M10.4773904,15.0182744 L10.9925373,15.5 L11.4967183,15.0061428 L17,9.61554804 L15.9679966,8.5 L10.9925373,13.3882798 L8.00665232,10.6266758 L7,11.7664869 L10.4773904,15.0182744 Z" fill="#1faa59"/></g></g><text x="0" y="39" fill="#1faa59" font-size="5px" font-weight="bold" font-family="'Helvetica Neue', Helvetica, Arial-Unicode, Arial, Sans-serif">Created by Ruslan Mirsalikhov</text><text x="0" y="44" fill="#1faa59" font-size="5px" font-weight="bold" font-family="'Helvetica Neue', Helvetica, Arial-Unicode, Arial, Sans-serif">from the Noun Project</text></svg>